<svg xmlns="http://www.w3.org/2000/svg" xmlns:xlink="http://www.w3.org/1999/xlink" width="500" zoomAndPan="magnify" viewBox="0 0 375 374.999991" height="500" preserveAspectRatio="xMidYMid meet" version="1.0"><defs><g/><clipPath id="0b34634d2f"><path d="M 33.125 2 L 338.375 2 L 338.375 301 L 33.125 301 Z M 33.125 2 " clip-rule="nonzero"/></clipPath></defs><g clip-path="url(#0b34634d2f)"><path fill="#d49b35" d="M 115.03125 86.046875 C 115.945312 86.046875 116.691406 86.792969 116.691406 87.707031 C 116.691406 88.621094 115.945312 89.367188 115.03125 89.367188 C 114.121094 89.367188 113.375 88.621094 113.375 87.707031 C 113.375 86.792969 114.121094 86.046875 115.03125 86.046875 Z M 214.101562 83.554688 C 213.519531 83.554688 213.105469 83.96875 213.105469 84.550781 C 213.105469 85.132812 213.519531 85.546875 214.101562 85.546875 C 214.679688 85.546875 215.097656 85.132812 215.097656 84.550781 C 215.097656 83.96875 214.679688 83.554688 214.101562 83.554688 Z M 211.117188 83.722656 C 210.371094 83.722656 209.871094 84.304688 209.871094 85.050781 C 209.871094 85.796875 210.453125 86.296875 211.199219 86.296875 C 211.945312 86.296875 212.441406 85.714844 212.441406 84.96875 C 212.359375 84.21875 211.78125 83.722656 211.117188 83.722656 Z M 207.46875 84.136719 C 206.722656 84.136719 206.226562 84.71875 206.226562 85.464844 C 206.226562 86.210938 206.804688 86.710938 207.550781 86.710938 C 208.296875 86.710938 208.796875 86.128906 208.796875 85.382812 C 208.796875 84.71875 208.214844 84.136719 207.46875 84.136719 Z M 203.324219 84.46875 C 202.496094 84.46875 201.914062 85.132812 201.914062 85.878906 C 201.914062 86.710938 202.578125 87.292969 203.324219 87.292969 C 204.152344 87.292969 204.734375 86.628906 204.734375 85.878906 C 204.734375 85.132812 204.070312 84.46875 203.324219 84.46875 Z M 198.847656 84.800781 C 198.019531 84.800781 197.4375 85.464844 197.4375 86.210938 C 197.4375 87.042969 198.101562 87.625 198.847656 87.625 C 199.675781 87.625 200.257812 86.960938 200.257812 86.210938 C 200.257812 85.464844 199.675781 84.800781 198.847656 84.800781 Z M 193.789062 85.132812 C 192.878906 85.132812 192.214844 85.878906 192.214844 86.710938 C 192.214844 87.625 192.960938 88.289062 193.789062 88.289062 C 194.703125 88.289062 195.363281 87.542969 195.363281 86.710938 C 195.363281 85.796875 194.617188 85.050781 193.789062 85.132812 Z M 188.402344 85.132812 C 187.570312 85.132812 186.824219 85.878906 186.824219 86.710938 C 186.824219 87.542969 187.570312 88.289062 188.402344 88.289062 C 189.230469 88.289062 189.976562 87.542969 189.976562 86.710938 C 189.976562 85.878906 189.3125 85.132812 188.402344 85.132812 Z M 157.476562 83.722656 C 158.058594 83.722656 158.472656 84.136719 158.472656 84.71875 C 158.472656 85.300781 158.058594 85.714844 157.476562 85.714844 C 156.898438 85.714844 156.484375 85.300781 156.484375 84.71875 C 156.484375 84.21875 156.980469 83.722656 157.476562 83.722656 Z M 160.546875 83.886719 C 161.292969 83.886719 161.871094 84.46875 161.871094 85.214844 C 161.871094 85.964844 161.292969 86.542969 160.546875 86.542969 C 159.800781 86.542969 159.21875 85.964844 159.21875 85.214844 C 159.21875 84.46875 159.800781 83.886719 160.546875 83.886719 Z M 164.109375 84.304688 C 164.855469 84.304688 165.4375 84.882812 165.4375 85.632812 C 165.4375 86.378906 164.855469 86.960938 164.109375 86.960938 C 163.363281 86.960938 162.785156 86.378906 162.785156 85.632812 C 162.867188 84.882812 163.445312 84.304688 164.109375 84.304688 Z M 168.339844 84.550781 C 169.167969 84.550781 169.746094 85.214844 169.746094 85.964844 C 169.746094 86.792969 169.085938 87.375 168.339844 87.375 C 167.59375 87.375 166.929688 86.710938 166.929688 85.964844 C 166.847656 85.214844 167.507812 84.550781 168.339844 84.550781 Z M 172.816406 84.882812 C 173.644531 84.882812 174.222656 85.546875 174.222656 86.296875 C 174.222656 87.125 173.5625 87.707031 172.816406 87.707031 C 171.984375 87.707031 171.40625 87.042969 171.40625 86.296875 C 171.324219 85.546875 171.984375 84.882812 172.816406 84.882812 Z M 177.871094 85.132812 C 178.785156 85.132812 179.449219 85.878906 179.449219 86.710938 C 179.449219 87.625 178.703125 88.289062 177.871094 88.289062 C 177.042969 88.289062 176.296875 87.542969 176.296875 86.710938 C 176.296875 85.796875 176.960938 85.132812 177.871094 85.132812 Z M 183.179688 85.132812 C 184.007812 85.132812 184.753906 85.796875 184.753906 86.710938 C 184.753906 87.542969 184.089844 88.289062 183.179688 88.289062 C 182.347656 88.289062 181.601562 87.625 181.601562 86.710938 C 181.6875 85.796875 182.347656 85.132812 183.179688 85.132812 Z M 183.261719 209.445312 C 179.695312 206.539062 176.046875 204.960938 172.152344 205.710938 C 169.25 206.375 167.261719 208.863281 165.769531 212.769531 C 161.953125 220.824219 158.140625 226.386719 154.328125 228.378906 C 166.265625 227.300781 174.640625 225.804688 177.707031 223.5625 C 176.710938 228.296875 176.710938 233.03125 178.453125 237.679688 C 179.777344 242.664062 182.597656 244.40625 182.515625 252.710938 C 183.675781 245.570312 185.914062 244.824219 188.484375 240.253906 C 192.792969 233.445312 193.125 228.214844 191.550781 221.570312 C 194.289062 225.222656 199.925781 227.132812 205.894531 227.464844 C 209.542969 227.632812 213.6875 228.464844 217.582031 228.960938 C 213.851562 226.222656 211.117188 223.5625 208.546875 219.164062 C 206.722656 215.507812 205.230469 211.105469 202.410156 208.199219 C 201.003906 206.125 197.933594 204.878906 194.121094 206.539062 C 191.21875 207.371094 189.5625 208.699219 187.988281 210.109375 C 194.039062 210.109375 197.273438 213.015625 199.011719 217.5 C 195.53125 213.183594 191.550781 210.859375 186.824219 211.9375 C 189.148438 220.242188 187.738281 226.46875 184.171875 231.535156 C 186.660156 224.3125 187.570312 217.5 184.421875 211.605469 C 178.703125 210.941406 175.300781 213.847656 172.316406 217.253906 C 174.308594 212.601562 177.042969 209.777344 183.261719 209.445312 Z M 151.839844 68.523438 C 154.246094 77.660156 157.894531 76.164062 161.953125 66.28125 C 163.28125 65.703125 164.609375 64.871094 165.4375 63.210938 C 166.101562 62.046875 166.265625 60.96875 166.101562 59.804688 C 166.015625 59.222656 165.851562 58.976562 165.105469 58.890625 C 165.355469 57.066406 164.9375 55.652344 163.863281 54.738281 C 162.121094 55.820312 161.125 57.480469 160.960938 59.804688 C 160.296875 59.722656 159.882812 60.21875 159.632812 61.132812 C 159.386719 62.378906 159.550781 63.542969 160.046875 64.789062 C 160.546875 65.535156 161.125 66.117188 162.039062 66.28125 C 166.847656 79.652344 172.316406 76.164062 176.878906 65.535156 C 174.308594 64.539062 172.898438 62.796875 172.566406 60.386719 C 172.234375 58.558594 173.3125 57.398438 174.554688 57.8125 C 174.554688 54.324219 175.632812 52.996094 177.789062 53.078125 C 180.277344 53.246094 180.773438 54.90625 180.195312 57.480469 C 181.851562 57.148438 182.597656 58.0625 182.183594 60.222656 C 181.355469 62.460938 179.613281 64.289062 176.960938 65.453125 C 180.523438 76.246094 189.394531 79.238281 194.703125 65.535156 C 197.273438 64.539062 198.765625 62.796875 199.09375 60.386719 C 199.425781 58.558594 198.347656 57.398438 197.105469 57.8125 C 197.105469 54.324219 196.027344 52.996094 193.871094 53.078125 C 191.46875 53.246094 190.886719 54.90625 191.46875 57.480469 C 189.808594 57.148438 189.0625 58.0625 189.480469 60.222656 C 190.308594 62.546875 192.046875 64.289062 194.785156 65.535156 C 200.257812 77.078125 204.816406 78.738281 209.707031 66.699219 C 213.605469 76.164062 217.832031 77.742188 219.738281 68.691406 C 218.496094 66.28125 217.582031 64.207031 217.832031 62.214844 C 217.664062 61.132812 217.75 60.386719 217.832031 59.390625 C 218.660156 60.222656 218.910156 61.300781 219.15625 62.214844 C 220.234375 64.953125 220.484375 66.613281 219.738281 68.691406 C 219.988281 71.015625 219.574219 74.003906 218.660156 77.328125 C 218.496094 77.246094 218.328125 77.078125 218.082031 77.078125 C 217.003906 77.328125 216.671875 78.242188 216.589844 79.320312 C 215.925781 79.238281 215.59375 79.570312 215.675781 80.234375 C 215.84375 81.230469 216.171875 81.894531 217.003906 82.394531 L 217.003906 82.476562 C 196.195312 85.546875 175.21875 85.878906 153.996094 82.640625 L 153.996094 82.558594 C 155.074219 82.0625 155.820312 81.394531 155.902344 80.152344 C 155.902344 79.402344 155.984375 78.90625 154.992188 79.070312 C 154.824219 77.742188 154.328125 77.078125 153.332031 76.996094 C 153.085938 77.160156 152.835938 77.328125 152.667969 77.492188 C 152.171875 74.671875 151.921875 71.761719 151.839844 68.523438 L 151.757812 68.691406 C 151.09375 66.78125 151.34375 65.203125 152.421875 62.628906 C 152.753906 61.714844 153 60.71875 153.746094 59.972656 C 153.832031 60.96875 153.832031 61.632812 153.664062 62.628906 C 153.832031 64.457031 153 66.367188 151.839844 68.523438 Z M 152.753906 62.960938 L 153.085938 62.960938 L 153.085938 62.214844 C 153.085938 62.128906 152.835938 62.796875 152.753906 62.960938 Z M 161.953125 59.140625 L 163.945312 58.976562 L 163.445312 56.484375 Z M 179.117188 57.5625 L 177.539062 54.492188 L 175.632812 57.8125 Z M 192.546875 57.5625 L 196.027344 57.8125 L 194.121094 54.492188 Z M 210.785156 59.722656 C 210.617188 57.398438 209.625 55.738281 207.882812 54.65625 C 206.804688 55.570312 206.308594 56.980469 206.640625 58.808594 C 205.8125 58.890625 205.726562 59.140625 205.644531 59.722656 C 205.480469 60.800781 205.644531 61.964844 206.308594 63.128906 C 207.136719 64.789062 208.464844 65.617188 209.789062 66.199219 C 210.703125 66.035156 211.28125 65.453125 211.78125 64.703125 C 212.277344 63.542969 212.441406 62.296875 212.195312 61.050781 C 211.863281 60.136719 211.367188 59.640625 210.785156 59.722656 Z M 209.707031 59.058594 L 208.214844 56.402344 L 207.71875 58.890625 Z M 218.910156 62.628906 C 218.828125 62.546875 218.496094 61.796875 218.496094 61.796875 L 218.496094 62.628906 Z M 215.675781 85.878906 C 214.847656 87.875 213.933594 89.949219 212.941406 92.109375 C 195.695312 96.34375 177.539062 96.675781 158.308594 92.109375 C 157.0625 89.949219 156.070312 87.875 155.238281 85.964844 C 175.71875 89.699219 195.78125 89.203125 215.675781 85.878906 Z M 167.261719 79.320312 C 166.597656 79.320312 166.265625 79.652344 166.433594 80.316406 C 166.679688 81.480469 167.179688 82.144531 168.421875 82.640625 C 169.582031 82.226562 170.410156 81.726562 170.660156 80.566406 C 170.742188 79.820312 170.910156 79.320312 169.914062 79.320312 C 169.914062 77.992188 169.5 77.246094 168.585938 76.996094 C 167.507812 77.328125 167.261719 78.242188 167.261719 79.320312 Z M 168.253906 78.574219 C 168.089844 78.574219 168.007812 78.65625 168.007812 78.820312 C 168.089844 79.152344 168.253906 79.320312 168.503906 79.488281 C 168.835938 79.402344 169 79.238281 169.085938 78.90625 C 169.085938 78.738281 169.167969 78.574219 168.917969 78.574219 C 168.917969 78.242188 168.835938 77.992188 168.585938 77.992188 C 168.339844 78.074219 168.253906 78.324219 168.253906 78.574219 Z M 184.421875 79.488281 C 183.757812 79.488281 183.34375 79.902344 183.507812 80.566406 C 183.839844 81.8125 184.339844 82.558594 185.75 83.140625 C 186.992188 82.726562 187.988281 82.144531 188.234375 80.816406 C 188.316406 79.984375 188.484375 79.402344 187.40625 79.488281 C 187.488281 78.074219 186.992188 77.160156 185.914062 76.910156 C 184.671875 77.246094 184.421875 78.242188 184.421875 79.488281 Z M 185.417969 78.65625 C 185.25 78.65625 185.085938 78.738281 185.167969 78.988281 C 185.25 79.320312 185.417969 79.570312 185.75 79.652344 C 186.078125 79.570312 186.328125 79.402344 186.410156 78.988281 C 186.410156 78.738281 186.496094 78.65625 186.164062 78.65625 C 186.164062 78.242188 186.078125 77.992188 185.75 77.992188 C 185.5 78.074219 185.417969 78.40625 185.417969 78.65625 Z M 201.582031 79.070312 C 200.917969 79.070312 200.585938 79.402344 200.753906 80.066406 C 201.003906 81.230469 201.5 81.894531 202.742188 82.394531 C 203.902344 81.976562 204.734375 81.480469 204.980469 80.316406 C 205.066406 79.570312 205.230469 79.070312 204.234375 79.070312 C 204.234375 77.742188 203.820312 76.996094 202.910156 76.746094 C 201.832031 77.160156 201.582031 78.074219 201.582031 79.070312 Z M 202.496094 78.40625 C 202.328125 78.40625 202.246094 78.488281 202.246094 78.65625 C 202.328125 78.988281 202.496094 79.152344 202.742188 79.320312 C 203.074219 79.238281 203.242188 79.070312 203.324219 78.738281 C 203.324219 78.574219 203.40625 78.40625 203.15625 78.40625 C 203.15625 78.074219 203.074219 77.824219 202.828125 77.824219 C 202.578125 77.910156 202.496094 78.15625 202.496094 78.40625 Z M 218.328125 78.574219 C 218.328125 78.40625 218.164062 78.242188 217.996094 78.15625 C 217.664062 78.242188 217.582031 78.488281 217.582031 78.738281 C 217.417969 78.738281 217.335938 78.820312 217.335938 78.988281 C 217.417969 79.320312 217.5 79.488281 217.832031 79.652344 L 217.996094 79.652344 C 218.082031 79.238281 218.246094 78.90625 218.328125 78.574219 Z M 153.25 78.65625 C 153.085938 78.65625 153 78.820312 153.085938 78.90625 C 153.167969 79.238281 153.332031 79.320312 153.664062 79.488281 C 153.914062 79.320312 154.160156 79.152344 154.160156 78.820312 C 154.160156 78.574219 154.160156 78.488281 153.914062 78.488281 C 153.914062 78.15625 153.746094 77.910156 153.5 77.910156 C 153.25 78.15625 153.167969 78.40625 153.25 78.65625 Z M 115.03125 217.167969 C 115.945312 217.167969 116.691406 216.421875 116.691406 215.507812 C 116.691406 214.59375 115.945312 213.847656 115.03125 213.847656 C 114.121094 213.847656 113.375 214.59375 113.375 215.507812 C 113.457031 216.421875 114.121094 217.167969 115.03125 217.167969 Z M 256.464844 217.167969 C 255.550781 217.167969 254.804688 216.421875 254.804688 215.507812 C 254.804688 214.59375 255.550781 213.847656 256.464844 213.847656 C 257.375 213.847656 258.121094 214.59375 258.121094 215.507812 C 258.121094 216.421875 257.375 217.167969 256.464844 217.167969 Z M 338.375 298.714844 C 317.8125 300.542969 303.636719 291.90625 289.792969 273.96875 L 263.84375 238.675781 C 256.464844 229.460938 247.675781 220.492188 236.484375 214.347656 C 245.851562 220.90625 257.292969 228.378906 260.777344 245.984375 C 262.765625 261.679688 255.636719 276.460938 245.4375 280.78125 C 238.226562 284.433594 226.121094 283.105469 218.164062 277.207031 C 232.175781 285.015625 247.429688 279.203125 252.402344 271.3125 C 260.445312 258.855469 259.449219 242.496094 253.480469 234.191406 C 252.898438 233.28125 252.238281 232.449219 251.574219 231.535156 C 261.523438 252.792969 251.160156 276.792969 225.375 275.628906 C 225.457031 274.21875 227.117188 271.8125 229.273438 270.730469 C 233.25 268.324219 237.398438 266.246094 241.210938 263.421875 C 246.929688 259.4375 251.160156 254.457031 252.484375 247.480469 C 253.148438 242 251.988281 235.9375 249.75 229.375 C 247.84375 227.050781 245.769531 224.890625 243.53125 222.898438 C 245.355469 225.472656 246.433594 230.457031 246.101562 233.28125 C 244.445312 240.585938 241.292969 241.832031 238.640625 242.664062 C 235.242188 243.660156 232.503906 242.914062 230.351562 240.671875 C 228.027344 238.097656 228.195312 234.441406 230.265625 232.613281 C 233.167969 230.539062 235.988281 230.289062 238.476562 232.53125 C 234.246094 231.703125 231.011719 232.199219 230.101562 236.019531 C 230.019531 238.675781 231.59375 240.421875 234.082031 241.5 C 238.476562 242 241.292969 240.339844 243.199219 237.597656 C 245.605469 234.109375 244.941406 229.210938 243.367188 226.136719 C 242.039062 223.398438 240.050781 221.238281 238.058594 219.578125 C 220.070312 208.867188 207.632812 204.132812 185.832031 202.386719 C 164.027344 204.132812 151.59375 208.867188 133.601562 219.578125 C 131.53125 221.238281 129.539062 223.398438 128.296875 226.136719 C 126.722656 229.210938 126.140625 234.109375 128.460938 237.597656 C 130.367188 240.339844 133.1875 242 137.582031 241.5 C 140.070312 240.421875 141.644531 238.675781 141.5625 236.019531 C 140.648438 232.28125 137.414062 231.703125 133.1875 232.53125 C 135.757812 230.289062 138.492188 230.539062 141.394531 232.613281 C 143.382812 234.359375 143.632812 238.011719 141.3125 240.671875 C 139.15625 242.914062 136.421875 243.660156 133.023438 242.664062 C 130.367188 241.914062 127.21875 240.585938 125.558594 233.28125 C 125.144531 230.457031 126.304688 225.472656 128.128906 222.898438 C 125.890625 224.976562 123.820312 227.132812 121.914062 229.375 C 119.675781 235.9375 118.511719 242 119.175781 247.480469 C 120.585938 254.457031 124.8125 259.4375 130.453125 263.421875 C 134.347656 266.246094 138.410156 268.324219 142.390625 270.730469 C 144.546875 271.894531 146.203125 274.21875 146.285156 275.628906 C 120.503906 276.792969 110.140625 252.792969 120.089844 231.535156 C 119.425781 232.367188 118.761719 233.28125 118.183594 234.191406 C 112.214844 242.496094 111.21875 258.855469 119.257812 271.3125 C 124.152344 279.117188 139.488281 284.929688 153.5 277.207031 C 145.539062 283.105469 133.4375 284.433594 126.222656 280.78125 C 115.945312 276.460938 108.898438 261.679688 110.886719 245.984375 C 114.285156 228.464844 125.808594 220.90625 135.175781 214.347656 C 123.984375 220.492188 115.199219 229.460938 107.820312 238.675781 L 81.789062 274.054688 C 68.027344 291.988281 53.765625 300.625 33.207031 298.800781 C 42.988281 298.300781 52.023438 295.476562 60.066406 289.5 C 69.351562 282.855469 77.476562 274.46875 84.855469 264.753906 C 92.398438 255.785156 97.703125 245.902344 105.082031 237.515625 C 102.265625 238.925781 97.125 239.339844 94.304688 238.511719 C 87.257812 235.769531 86.429688 232.449219 86.015625 229.625 C 85.519531 226.136719 86.679688 223.480469 89.25 221.652344 C 92.234375 219.660156 95.796875 220.40625 97.289062 222.734375 C 98.949219 225.972656 98.78125 228.796875 96.210938 230.953125 C 97.703125 226.886719 97.621094 223.480469 93.972656 222.070312 C 91.320312 221.652344 89.414062 222.898438 87.921875 225.308594 C 86.761719 229.707031 88.003906 232.699219 90.492188 235.023438 C 93.558594 237.929688 98.617188 238.011719 101.933594 236.933594 C 104.835938 236.019531 107.320312 234.359375 109.226562 232.53125 C 123.820312 214.015625 144.710938 205.378906 156.816406 203.136719 C 141.144531 205.292969 125.890625 210.691406 111.21875 222.648438 C 116.027344 216.753906 123.15625 211.855469 131.945312 208.199219 C 131.777344 208.199219 131.613281 208.285156 131.53125 208.285156 C 130.285156 208.285156 129.289062 207.289062 129.289062 206.042969 C 129.289062 204.796875 130.285156 203.800781 131.53125 203.800781 C 132.773438 203.800781 133.769531 204.796875 133.769531 206.042969 C 133.769531 206.871094 133.351562 207.535156 132.773438 207.953125 C 133.933594 207.453125 135.09375 207.039062 136.335938 206.625 L 136.007812 206.625 C 134.679688 206.625 133.601562 205.542969 133.601562 204.214844 C 133.601562 202.886719 134.679688 201.808594 136.007812 201.808594 C 137.332031 201.808594 138.410156 202.886719 138.410156 204.214844 C 138.410156 205.128906 137.914062 205.875 137.167969 206.289062 C 150.679688 201.722656 167.507812 199.980469 186.078125 201.890625 C 204.648438 199.980469 221.480469 201.722656 234.992188 206.289062 C 234.246094 205.875 233.75 205.128906 233.75 204.214844 C 233.75 202.886719 234.828125 201.808594 236.152344 201.808594 C 237.480469 201.808594 238.558594 202.886719 238.558594 204.214844 C 238.558594 205.542969 237.480469 206.625 236.152344 206.625 L 235.820312 206.625 C 237.066406 207.039062 238.226562 207.453125 239.386719 207.953125 C 238.804688 207.535156 238.390625 206.871094 238.390625 206.042969 C 238.390625 204.796875 239.386719 203.800781 240.628906 203.800781 C 241.875 203.800781 242.867188 204.796875 242.867188 206.042969 C 242.867188 207.289062 241.875 208.285156 240.628906 208.285156 C 240.464844 208.285156 240.296875 208.285156 240.214844 208.199219 C 249.003906 211.855469 256.050781 216.753906 260.941406 222.648438 C 246.265625 210.691406 230.929688 205.292969 215.34375 203.136719 C 227.367188 205.378906 248.339844 214.015625 262.929688 232.53125 C 264.835938 234.359375 267.324219 236.019531 270.226562 236.933594 C 273.542969 238.097656 278.515625 237.929688 281.667969 235.023438 C 284.15625 232.699219 285.398438 229.707031 284.238281 225.308594 C 282.746094 222.980469 280.839844 221.652344 278.183594 222.070312 C 274.539062 223.5625 274.539062 226.886719 275.945312 230.953125 C 273.292969 228.710938 273.210938 225.972656 274.871094 222.734375 C 276.363281 220.492188 279.925781 219.742188 282.910156 221.652344 C 285.480469 223.480469 286.558594 226.136719 286.144531 229.625 C 285.730469 232.367188 284.984375 235.769531 277.855469 238.511719 C 275.035156 239.339844 269.976562 238.925781 267.078125 237.515625 C 274.453125 245.902344 279.675781 255.785156 287.304688 264.753906 C 294.683594 274.386719 302.808594 282.855469 312.09375 289.5 C 319.554688 295.394531 328.589844 298.21875 338.375 298.714844 Z M 261.851562 247.8125 C 262.683594 256.78125 261.769531 264.917969 257.875 271.726562 C 254.058594 277.457031 249.5 282.023438 243.199219 285.929688 C 240.546875 287.339844 243.28125 288.917969 245.355469 288.171875 C 252.566406 284.515625 256.214844 278.785156 259.285156 272.640625 C 263.675781 264.421875 263.34375 253.042969 261.851562 247.8125 Z M 269.316406 254.703125 C 274.289062 271.5625 282 286.175781 292.363281 298.800781 C 294.351562 301.789062 300.238281 300.210938 296.09375 295.144531 C 281.003906 281.445312 273.542969 267.574219 269.316406 254.703125 Z M 318.0625 216.257812 C 316.402344 224.808594 314.25 233.28125 307.117188 238.511719 C 297.585938 248.476562 278.183594 244.90625 274.371094 241.25 C 279.347656 247.8125 300.570312 250.136719 310.1875 241.75 C 318.890625 235.855469 320.300781 227.050781 318.0625 216.257812 Z M 245.519531 226.636719 C 247.261719 230.953125 247.34375 235.273438 244.195312 239.507812 C 241.210938 242.664062 239.71875 245.734375 241.375 248.394531 C 242.621094 249.640625 244.609375 249.140625 245.519531 246.980469 C 245.769531 246.234375 244.773438 245.652344 244.359375 246.316406 C 242.867188 249.222656 241.375 246.730469 242.621094 245.320312 C 252.734375 236.683594 250.496094 231.285156 245.519531 226.636719 Z M 270.890625 239.09375 C 276.277344 243.328125 281.914062 244.65625 288.796875 233.28125 C 289.957031 231.785156 292.695312 232.863281 290.039062 234.773438 C 289.460938 235.355469 290.289062 236.1875 290.953125 235.855469 C 292.941406 234.609375 293.109375 232.53125 291.699219 231.535156 C 288.796875 230.289062 286.0625 232.199219 283.410156 235.6875 C 279.675781 239.507812 275.449219 240.089844 270.890625 239.09375 Z M 267.492188 272.972656 C 267.824219 269.734375 268.402344 265.996094 268.320312 261.847656 C 267.574219 254.121094 266 248.890625 263.925781 244.738281 C 265.5 250.386719 266 256.199219 265.832031 261.597656 C 265.914062 265.332031 264.835938 271.644531 267.492188 272.972656 Z M 300.484375 261.515625 C 290.871094 257.777344 282.496094 252.710938 275.199219 246.234375 C 277.9375 250.46875 281.167969 254.289062 286.0625 256.863281 C 290.453125 259.4375 295.261719 260.933594 300.484375 261.515625 Z M 317.980469 266.996094 C 315.160156 262.425781 307.117188 257.609375 301.5625 261.929688 C 303.886719 268.238281 310.683594 269.238281 317.980469 266.996094 Z M 269.894531 287.089844 C 272.214844 283.601562 272.878906 275.796875 267.988281 273.472656 C 264.175781 277.292969 265.585938 282.6875 269.894531 287.089844 Z M 207.632812 201.308594 C 208.464844 201.308594 209.125 200.644531 209.125 199.8125 C 209.125 198.984375 208.464844 198.320312 207.632812 198.320312 C 206.804688 198.320312 206.140625 198.984375 206.140625 199.8125 C 206.140625 200.644531 206.804688 201.308594 207.632812 201.308594 Z M 213.1875 201.558594 C 214.101562 201.558594 214.847656 200.808594 214.847656 199.898438 C 214.847656 198.984375 214.101562 198.234375 213.1875 198.234375 C 212.277344 198.234375 211.53125 198.984375 211.53125 199.898438 C 211.449219 200.808594 212.195312 201.558594 213.1875 201.558594 Z M 218.910156 202.222656 C 219.988281 202.222656 220.898438 201.308594 220.898438 200.230469 C 220.898438 199.148438 219.988281 198.234375 218.910156 198.234375 C 217.832031 198.234375 216.917969 199.148438 216.917969 200.230469 C 216.917969 201.390625 217.832031 202.222656 218.910156 202.222656 Z M 224.628906 203.136719 C 225.789062 203.136719 226.785156 202.140625 226.785156 200.976562 C 226.785156 199.8125 225.789062 198.816406 224.628906 198.816406 C 223.46875 198.816406 222.472656 199.8125 222.472656 200.976562 C 222.472656 202.140625 223.46875 203.136719 224.628906 203.136719 Z M 230.183594 204.464844 C 231.429688 204.464844 232.421875 203.46875 232.421875 202.222656 C 232.421875 200.976562 231.429688 199.980469 230.183594 199.980469 C 228.941406 199.980469 227.945312 200.976562 227.945312 202.222656 C 227.945312 203.46875 228.941406 204.464844 230.183594 204.464844 Z M 244.527344 210.109375 C 245.6875 210.109375 246.683594 209.113281 246.683594 207.953125 C 246.683594 206.789062 245.6875 205.792969 244.527344 205.792969 C 243.367188 205.792969 242.371094 206.789062 242.371094 207.953125 C 242.371094 209.113281 243.367188 210.109375 244.527344 210.109375 Z M 248.753906 212.105469 C 249.832031 212.105469 250.660156 211.273438 250.660156 210.195312 C 250.660156 209.113281 249.832031 208.285156 248.753906 208.285156 C 247.675781 208.285156 246.847656 209.113281 246.847656 210.195312 C 246.847656 211.191406 247.675781 212.105469 248.753906 212.105469 Z M 252.734375 214.347656 C 253.730469 214.347656 254.476562 213.597656 254.476562 212.601562 C 254.476562 211.605469 253.730469 210.859375 252.734375 210.859375 C 251.738281 210.859375 250.992188 211.605469 250.992188 212.601562 C 250.992188 213.597656 251.738281 214.347656 252.734375 214.347656 Z M 109.644531 247.8125 C 108.152344 252.960938 107.820312 264.421875 112.214844 272.640625 C 115.199219 278.785156 118.929688 284.515625 126.140625 288.171875 C 128.296875 288.917969 130.949219 287.339844 128.296875 285.929688 C 121.996094 282.023438 117.4375 277.375 113.621094 271.726562 C 109.808594 264.917969 108.898438 256.78125 109.644531 247.8125 Z M 102.179688 254.703125 C 97.953125 267.574219 90.492188 281.445312 75.402344 295.144531 C 71.257812 300.128906 77.144531 301.789062 79.132812 298.800781 C 89.496094 286.175781 97.289062 271.5625 102.179688 254.703125 Z M 53.515625 216.257812 C 51.195312 227.050781 52.6875 235.855469 61.394531 241.832031 C 71.011719 250.21875 92.234375 247.8125 97.207031 241.335938 C 93.394531 244.988281 73.996094 248.476562 64.460938 238.59375 C 57.332031 233.28125 55.09375 224.808594 53.515625 216.257812 Z M 126.058594 226.636719 C 121 231.285156 118.761719 236.683594 128.875 245.238281 C 130.121094 246.648438 128.628906 249.140625 127.136719 246.234375 C 126.636719 245.570312 125.644531 246.234375 125.976562 246.898438 C 126.886719 249.058594 128.875 249.554688 130.121094 248.308594 C 131.777344 245.652344 130.367188 242.582031 127.300781 239.425781 C 124.234375 235.273438 124.316406 230.953125 126.058594 226.636719 Z M 100.605469 239.09375 C 96.046875 240.089844 91.820312 239.507812 88.171875 235.6875 C 85.519531 232.199219 82.78125 230.289062 79.878906 231.535156 C 78.472656 232.53125 78.636719 234.609375 80.625 235.855469 C 81.289062 236.269531 82.035156 235.355469 81.539062 234.773438 C 78.96875 232.863281 81.621094 231.785156 82.78125 233.28125 C 89.496094 244.65625 95.21875 243.328125 100.605469 239.09375 Z M 104.003906 272.972656 C 106.574219 271.644531 105.582031 265.332031 105.664062 261.679688 C 105.414062 256.199219 105.914062 250.46875 107.570312 244.824219 C 105.496094 248.972656 103.921875 254.121094 103.175781 261.929688 C 103.09375 265.996094 103.675781 269.734375 104.003906 272.972656 Z M 71.011719 261.515625 C 76.148438 260.933594 81.042969 259.4375 85.433594 256.945312 C 90.328125 254.371094 93.558594 250.550781 96.296875 246.316406 C 89 252.628906 80.625 257.777344 71.011719 261.515625 Z M 53.515625 266.996094 C 60.8125 269.238281 67.609375 268.238281 69.933594 261.929688 C 64.378906 257.609375 56.417969 262.34375 53.515625 266.996094 Z M 101.601562 287.089844 C 105.914062 282.6875 107.320312 277.207031 103.507812 273.472656 C 98.617188 275.796875 99.28125 283.601562 101.601562 287.089844 Z M 163.863281 201.308594 C 164.691406 201.308594 165.355469 200.644531 165.355469 199.8125 C 165.355469 198.984375 164.691406 198.320312 163.863281 198.320312 C 163.03125 198.320312 162.371094 198.984375 162.371094 199.8125 C 162.371094 200.644531 163.03125 201.308594 163.863281 201.308594 Z M 158.308594 201.558594 C 159.21875 201.558594 159.964844 200.808594 159.964844 199.898438 C 159.964844 198.984375 159.21875 198.234375 158.308594 198.234375 C 157.394531 198.234375 156.648438 198.984375 156.648438 199.898438 C 156.648438 200.808594 157.394531 201.558594 158.308594 201.558594 Z M 152.585938 202.222656 C 153.664062 202.222656 154.578125 201.308594 154.578125 200.230469 C 154.578125 199.148438 153.664062 198.234375 152.585938 198.234375 C 151.507812 198.234375 150.597656 199.148438 150.597656 200.230469 C 150.597656 201.390625 151.507812 202.222656 152.585938 202.222656 Z M 146.867188 203.136719 C 148.027344 203.136719 149.023438 202.140625 149.023438 200.976562 C 149.023438 199.8125 148.027344 198.816406 146.867188 198.816406 C 145.707031 198.816406 144.710938 199.8125 144.710938 200.976562 C 144.792969 202.140625 145.707031 203.136719 146.867188 203.136719 Z M 141.394531 204.464844 C 142.636719 204.464844 143.632812 203.46875 143.632812 202.222656 C 143.632812 200.976562 142.636719 199.980469 141.394531 199.980469 C 140.152344 199.980469 139.15625 200.976562 139.15625 202.222656 C 139.15625 203.46875 140.152344 204.464844 141.394531 204.464844 Z M 126.96875 210.109375 C 128.128906 210.109375 129.125 209.113281 129.125 207.953125 C 129.125 206.789062 128.128906 205.792969 126.96875 205.792969 C 125.808594 205.792969 124.8125 206.789062 124.8125 207.953125 C 124.8125 209.113281 125.808594 210.109375 126.96875 210.109375 Z M 122.742188 212.105469 C 123.820312 212.105469 124.648438 211.273438 124.648438 210.195312 C 124.648438 209.113281 123.820312 208.285156 122.742188 208.285156 C 121.664062 208.285156 120.835938 209.113281 120.835938 210.195312 C 120.835938 211.191406 121.746094 212.105469 122.742188 212.105469 Z M 118.761719 214.347656 C 119.757812 214.347656 120.503906 213.597656 120.503906 212.601562 C 120.503906 211.605469 119.757812 210.859375 118.761719 210.859375 C 117.765625 210.859375 117.019531 211.605469 117.019531 212.601562 C 117.019531 213.597656 117.765625 214.347656 118.761719 214.347656 Z M 256.382812 86.046875 C 255.46875 86.046875 254.722656 86.792969 254.722656 87.707031 C 254.722656 88.621094 255.46875 89.367188 256.382812 89.367188 C 257.292969 89.367188 258.039062 88.621094 258.039062 87.707031 C 258.039062 86.792969 257.292969 86.046875 256.382812 86.046875 Z M 338.289062 4.5 C 317.730469 2.671875 303.554688 11.308594 289.707031 29.246094 L 263.761719 64.621094 C 256.382812 73.839844 247.59375 82.808594 236.402344 88.953125 C 245.769531 82.394531 257.210938 74.917969 260.691406 57.3125 C 262.683594 41.621094 255.550781 26.839844 245.355469 22.519531 C 238.144531 18.867188 226.039062 20.195312 218.082031 26.089844 C 232.089844 18.285156 247.34375 24.097656 252.320312 31.988281 C 260.359375 44.441406 259.367188 60.800781 253.398438 69.105469 C 252.816406 70.019531 252.152344 70.851562 251.492188 71.761719 C 261.4375 50.503906 251.074219 26.503906 225.292969 27.667969 C 225.375 29.082031 227.035156 31.488281 229.1875 32.566406 C 233.167969 34.976562 237.3125 37.050781 241.128906 39.875 C 246.847656 43.863281 251.074219 48.84375 252.402344 55.820312 C 253.066406 61.300781 251.90625 67.363281 249.667969 73.921875 C 247.761719 76.246094 245.6875 78.40625 243.449219 80.398438 C 245.273438 77.824219 246.351562 72.84375 246.019531 70.019531 C 244.359375 62.710938 241.210938 61.464844 238.558594 60.636719 C 235.160156 59.640625 232.421875 60.386719 230.265625 62.628906 C 227.945312 65.203125 228.113281 68.855469 230.183594 70.683594 C 233.085938 72.761719 235.90625 73.007812 238.390625 70.765625 C 234.164062 71.597656 230.929688 71.097656 230.019531 67.277344 C 229.9375 64.621094 231.511719 62.878906 233.996094 61.796875 C 238.390625 61.300781 241.210938 62.960938 243.117188 65.703125 C 245.519531 69.1875 244.859375 74.089844 243.28125 77.160156 C 241.957031 79.902344 239.96875 82.0625 237.976562 83.722656 C 219.988281 94.433594 207.550781 99.167969 185.75 100.910156 C 163.945312 99.167969 151.507812 94.433594 133.519531 83.722656 C 131.445312 82.0625 129.457031 79.902344 128.214844 77.160156 C 126.636719 74.089844 126.058594 69.1875 128.378906 65.703125 C 130.285156 62.960938 133.105469 61.300781 137.5 61.796875 C 139.984375 62.878906 141.5625 64.621094 141.476562 67.277344 C 140.566406 71.015625 137.332031 71.597656 133.105469 70.765625 C 135.675781 73.007812 138.410156 72.761719 141.3125 70.683594 C 143.300781 68.941406 143.550781 65.285156 141.230469 62.628906 C 139.074219 60.386719 136.335938 59.640625 132.9375 60.636719 C 130.285156 61.382812 127.136719 62.710938 125.476562 70.019531 C 125.0625 72.84375 126.222656 77.824219 128.046875 80.398438 C 125.808594 78.324219 123.738281 76.164062 121.828125 73.921875 C 119.589844 67.363281 118.429688 61.300781 119.09375 55.820312 C 120.503906 48.84375 124.730469 43.863281 130.367188 39.875 C 134.265625 37.050781 138.328125 34.976562 142.308594 32.566406 C 144.460938 31.40625 146.121094 29.082031 146.203125 27.667969 C 120.421875 26.503906 110.058594 50.503906 120.003906 71.761719 C 119.34375 70.933594 118.679688 70.019531 118.097656 69.105469 C 112.128906 60.800781 111.136719 44.441406 119.175781 31.988281 C 124.066406 24.179688 139.40625 18.367188 153.414062 26.089844 C 145.457031 20.195312 133.351562 18.867188 126.140625 22.519531 C 115.859375 26.839844 108.8125 41.621094 110.804688 57.3125 C 114.203125 74.835938 125.726562 82.394531 135.09375 88.953125 C 123.902344 82.808594 115.113281 73.839844 107.734375 64.621094 L 81.703125 29.246094 C 67.941406 11.308594 53.683594 2.671875 33.125 4.5 C 42.90625 4.996094 51.941406 7.820312 59.984375 13.800781 C 69.269531 20.445312 77.394531 28.832031 84.773438 38.546875 C 92.316406 47.515625 97.621094 57.398438 105 65.785156 C 102.179688 64.371094 97.042969 63.957031 94.222656 64.789062 C 87.175781 67.527344 86.347656 70.851562 85.933594 73.671875 C 85.433594 77.160156 86.597656 79.820312 89.164062 81.644531 C 92.148438 83.636719 95.714844 82.890625 97.207031 80.566406 C 98.867188 77.328125 98.699219 74.503906 96.128906 72.34375 C 97.621094 76.414062 97.539062 79.820312 93.890625 81.230469 C 91.238281 81.644531 89.332031 80.398438 87.839844 77.992188 C 86.679688 73.589844 87.921875 70.601562 90.410156 68.277344 C 93.476562 65.371094 98.535156 65.285156 101.851562 66.367188 C 104.75 67.277344 107.238281 68.941406 109.144531 70.765625 C 123.738281 89.285156 144.628906 97.921875 156.730469 100.164062 C 141.0625 98.003906 125.808594 92.605469 111.136719 80.648438 C 115.945312 86.546875 123.074219 91.445312 131.859375 95.097656 C 131.695312 95.097656 131.53125 95.015625 131.445312 95.015625 C 130.203125 95.015625 129.207031 96.011719 129.207031 97.257812 C 129.207031 98.503906 130.203125 99.5 131.445312 99.5 C 132.691406 99.5 133.683594 98.503906 133.683594 97.257812 C 133.683594 96.425781 133.269531 95.761719 132.691406 95.347656 C 133.851562 95.84375 135.011719 96.261719 136.253906 96.675781 L 135.921875 96.675781 C 134.597656 96.675781 133.519531 97.753906 133.519531 99.085938 C 133.519531 100.414062 134.597656 101.492188 135.921875 101.492188 C 137.25 101.492188 138.328125 100.414062 138.328125 99.085938 C 138.328125 98.171875 137.828125 97.421875 137.082031 97.007812 C 150.597656 101.574219 167.425781 103.320312 185.996094 101.410156 C 204.566406 103.320312 221.398438 101.574219 234.910156 97.007812 C 234.164062 97.421875 233.667969 98.171875 233.667969 99.085938 C 233.667969 100.414062 234.742188 101.492188 236.070312 101.492188 C 237.398438 101.492188 238.472656 100.414062 238.472656 99.085938 C 238.472656 97.753906 237.398438 96.675781 236.070312 96.675781 L 235.738281 96.675781 C 236.980469 96.261719 238.144531 95.84375 239.304688 95.347656 C 238.722656 95.761719 238.308594 96.425781 238.308594 97.257812 C 238.308594 98.503906 239.304688 99.5 240.546875 99.5 C 241.789062 99.5 242.785156 98.503906 242.785156 97.257812 C 242.785156 96.011719 241.789062 95.015625 240.546875 95.015625 C 240.382812 95.015625 240.214844 95.015625 240.132812 95.097656 C 248.921875 91.445312 255.96875 86.546875 260.859375 80.648438 C 246.183594 92.605469 230.847656 98.003906 215.261719 100.164062 C 227.28125 97.921875 248.257812 89.285156 262.847656 70.765625 C 264.753906 68.941406 267.242188 67.28125 270.144531 66.367188 C 273.460938 65.203125 278.433594 65.371094 281.585938 68.277344 C 284.070312 70.601562 285.316406 73.589844 284.152344 77.992188 C 282.660156 80.316406 280.753906 81.644531 278.101562 81.230469 C 274.453125 79.734375 274.453125 76.414062 275.863281 72.34375 C 273.210938 74.585938 273.128906 77.328125 274.785156 80.566406 C 276.277344 82.808594 279.84375 83.554688 282.828125 81.644531 C 285.398438 79.820312 286.476562 77.160156 286.0625 73.671875 C 285.648438 70.933594 284.902344 67.527344 277.769531 64.789062 C 274.953125 63.957031 269.894531 64.371094 266.992188 65.785156 C 274.371094 57.398438 279.59375 47.515625 287.222656 38.546875 C 294.601562 28.914062 302.726562 20.445312 312.011719 13.800781 C 319.472656 7.820312 328.507812 5 338.289062 4.5 Z M 261.769531 55.40625 C 262.597656 46.4375 261.6875 38.296875 257.792969 31.488281 C 253.976562 25.757812 249.417969 21.191406 243.117188 17.289062 C 240.464844 15.875 243.199219 14.296875 245.273438 15.046875 C 252.484375 18.699219 256.132812 24.429688 259.199219 30.574219 C 263.59375 38.796875 263.261719 50.253906 261.769531 55.40625 Z M 269.230469 48.511719 C 274.207031 31.65625 281.914062 17.039062 292.277344 4.417969 C 294.269531 1.425781 300.15625 3.003906 296.007812 8.070312 C 281.003906 21.855469 273.460938 35.640625 269.230469 48.511719 Z M 317.980469 86.960938 C 316.320312 78.40625 314.164062 69.9375 307.035156 64.703125 C 297.5 54.738281 278.101562 58.3125 274.289062 61.964844 C 279.261719 55.40625 300.484375 53.078125 310.101562 61.464844 C 318.808594 67.445312 320.300781 76.164062 317.980469 86.960938 Z M 245.4375 76.664062 C 247.179688 72.34375 247.261719 68.027344 244.113281 63.792969 C 241.128906 60.636719 239.636719 57.5625 241.292969 54.90625 C 242.535156 53.660156 244.527344 54.160156 245.4375 56.316406 C 245.6875 57.066406 244.691406 57.644531 244.277344 56.980469 C 242.785156 54.074219 241.292969 56.566406 242.535156 57.980469 C 252.734375 66.613281 250.496094 72.011719 245.4375 76.664062 Z M 270.890625 64.125 C 276.277344 59.886719 281.914062 58.558594 288.796875 69.9375 C 289.957031 71.429688 292.695312 70.351562 290.039062 68.441406 C 289.460938 67.859375 290.289062 67.03125 290.953125 67.363281 C 292.941406 68.609375 293.109375 70.683594 291.699219 71.679688 C 288.796875 72.925781 286.0625 71.015625 283.410156 67.527344 C 279.675781 63.792969 275.449219 63.128906 270.890625 64.125 Z M 267.40625 30.242188 C 267.738281 33.480469 268.320312 37.21875 268.238281 41.371094 C 267.492188 49.09375 265.914062 54.324219 263.84375 58.476562 C 265.417969 52.828125 265.914062 47.015625 265.75 41.621094 C 265.832031 37.882812 264.835938 31.570312 267.40625 30.242188 Z M 300.402344 41.785156 C 290.785156 45.523438 282.414062 50.589844 275.117188 57.066406 C 277.855469 52.828125 281.085938 49.011719 285.976562 46.4375 C 290.453125 43.777344 295.261719 42.285156 300.402344 41.785156 Z M 317.894531 36.304688 C 315.078125 40.871094 307.035156 45.6875 301.480469 41.371094 C 303.800781 35.058594 310.601562 34.0625 317.894531 36.304688 Z M 269.8125 16.125 C 272.132812 19.613281 272.796875 27.417969 267.90625 29.746094 C 264.175781 26.007812 265.585938 20.609375 269.8125 16.125 Z M 207.550781 101.90625 C 208.378906 101.90625 209.042969 102.570312 209.042969 103.402344 C 209.042969 104.234375 208.378906 104.898438 207.550781 104.898438 C 206.722656 104.898438 206.058594 104.234375 206.058594 103.402344 C 206.058594 102.570312 206.722656 101.90625 207.550781 101.90625 Z M 213.105469 101.660156 C 214.019531 101.660156 214.765625 102.40625 214.765625 103.320312 C 214.765625 104.234375 214.019531 104.980469 213.105469 104.980469 C 212.195312 104.980469 211.449219 104.234375 211.449219 103.320312 C 211.449219 102.40625 212.195312 101.660156 213.105469 101.660156 Z M 218.910156 100.996094 C 219.988281 100.996094 220.898438 101.90625 220.898438 102.988281 C 220.898438 104.066406 219.988281 104.980469 218.910156 104.980469 C 217.832031 104.980469 216.917969 104.066406 216.917969 102.988281 C 216.917969 101.90625 217.75 100.996094 218.910156 100.996094 Z M 224.546875 100.082031 C 225.707031 100.082031 226.703125 101.078125 226.703125 102.238281 C 226.703125 103.402344 225.707031 104.398438 224.546875 104.398438 C 223.386719 104.398438 222.390625 103.402344 222.390625 102.238281 C 222.390625 101.078125 223.386719 100.082031 224.546875 100.082031 Z M 230.101562 98.753906 C 231.34375 98.753906 232.339844 99.75 232.339844 100.996094 C 232.339844 102.238281 231.34375 103.234375 230.101562 103.234375 C 228.859375 103.234375 227.863281 102.238281 227.863281 100.996094 C 227.863281 99.832031 228.859375 98.753906 230.101562 98.753906 Z M 244.445312 93.1875 C 245.605469 93.1875 246.597656 94.183594 246.597656 95.347656 C 246.597656 96.511719 245.605469 97.507812 244.445312 97.507812 C 243.28125 97.507812 242.289062 96.511719 242.289062 95.347656 C 242.371094 94.101562 243.28125 93.1875 244.445312 93.1875 Z M 248.671875 91.195312 C 249.75 91.195312 250.578125 92.027344 250.578125 93.105469 C 250.578125 94.183594 249.75 95.015625 248.671875 95.015625 C 247.59375 95.015625 246.765625 94.183594 246.765625 93.105469 C 246.765625 92.027344 247.59375 91.195312 248.671875 91.195312 Z M 252.652344 88.871094 C 253.644531 88.871094 254.390625 89.617188 254.390625 90.613281 C 254.390625 91.609375 253.644531 92.359375 252.652344 92.359375 C 251.65625 92.359375 250.910156 91.609375 250.910156 90.613281 C 250.910156 89.699219 251.738281 88.871094 252.652344 88.871094 Z M 109.644531 55.40625 C 108.152344 50.253906 107.820312 38.796875 112.210938 30.574219 C 115.199219 24.429688 118.929688 18.699219 126.140625 15.046875 C 128.296875 14.296875 130.949219 15.875 128.296875 17.289062 C 121.996094 21.191406 117.4375 25.839844 113.621094 31.488281 C 109.726562 38.296875 108.8125 46.4375 109.644531 55.40625 Z M 102.179688 48.511719 C 97.953125 35.640625 90.492188 21.773438 75.402344 8.070312 C 71.257812 3.089844 77.144531 1.425781 79.132812 4.417969 C 89.496094 17.039062 97.207031 31.65625 102.179688 48.511719 Z M 53.433594 86.960938 C 51.113281 76.164062 52.605469 67.363281 61.308594 61.382812 C 70.925781 52.996094 92.148438 55.40625 97.125 61.882812 C 93.3125 58.226562 73.910156 54.738281 64.378906 64.621094 C 57.246094 69.9375 55.007812 78.40625 53.433594 86.960938 Z M 125.976562 76.664062 C 120.917969 72.011719 118.679688 66.613281 128.792969 58.0625 C 130.035156 56.648438 128.542969 54.160156 127.050781 57.066406 C 126.554688 57.730469 125.558594 57.066406 125.890625 56.402344 C 126.804688 54.242188 128.792969 53.742188 130.035156 54.988281 C 131.695312 57.644531 130.285156 60.71875 127.21875 63.875 C 124.152344 68.027344 124.234375 72.261719 125.976562 76.664062 Z M 100.523438 64.125 C 95.964844 63.128906 91.734375 63.707031 88.089844 67.527344 C 85.433594 71.015625 82.699219 72.925781 79.796875 71.679688 C 78.386719 70.683594 78.554688 68.609375 80.542969 67.363281 C 81.207031 66.945312 81.953125 67.859375 81.457031 68.441406 C 78.886719 70.351562 81.539062 71.429688 82.699219 69.9375 C 89.496094 58.558594 95.136719 59.886719 100.523438 64.125 Z M 104.003906 30.242188 C 106.574219 31.570312 105.582031 37.882812 105.664062 41.535156 C 105.414062 47.015625 105.914062 52.746094 107.570312 58.394531 C 105.496094 54.242188 103.921875 49.09375 103.175781 41.289062 C 103.09375 37.21875 103.671875 33.5625 104.003906 30.242188 Z M 71.011719 41.785156 C 76.148438 42.367188 81.042969 43.863281 85.433594 46.351562 C 90.328125 48.925781 93.558594 52.746094 96.296875 56.980469 C 88.917969 50.589844 80.542969 45.4375 71.011719 41.785156 Z M 53.515625 36.304688 C 60.8125 34.0625 67.609375 35.058594 69.933594 41.371094 C 64.378906 45.6875 56.335938 40.871094 53.515625 36.304688 Z M 101.601562 16.125 C 105.914062 20.527344 107.320312 26.007812 103.507812 29.746094 C 98.535156 27.417969 99.195312 19.695312 101.601562 16.125 Z M 163.777344 101.90625 C 164.609375 101.90625 165.269531 102.570312 165.269531 103.402344 C 165.269531 104.234375 164.609375 104.898438 163.777344 104.898438 C 162.949219 104.898438 162.285156 104.234375 162.285156 103.402344 C 162.371094 102.570312 163.03125 101.90625 163.777344 101.90625 Z M 158.308594 101.660156 C 159.21875 101.660156 159.964844 102.40625 159.964844 103.320312 C 159.964844 104.234375 159.21875 104.980469 158.308594 104.980469 C 157.394531 104.980469 156.648438 104.234375 156.648438 103.320312 C 156.648438 102.40625 157.394531 101.660156 158.308594 101.660156 Z M 152.503906 100.996094 C 153.582031 100.996094 154.492188 101.90625 154.492188 102.988281 C 154.492188 104.066406 153.582031 104.980469 152.503906 104.980469 C 151.425781 104.980469 150.515625 104.066406 150.515625 102.988281 C 150.515625 101.90625 151.425781 100.996094 152.503906 100.996094 Z M 146.867188 100.082031 C 148.027344 100.082031 149.023438 101.078125 149.023438 102.238281 C 149.023438 103.402344 148.027344 104.398438 146.867188 104.398438 C 145.707031 104.398438 144.710938 103.402344 144.710938 102.238281 C 144.710938 101.078125 145.621094 100.082031 146.867188 100.082031 Z M 141.3125 98.753906 C 142.554688 98.753906 143.550781 99.75 143.550781 100.996094 C 143.550781 102.238281 142.554688 103.234375 141.3125 103.234375 C 140.070312 103.234375 139.074219 102.238281 139.074219 100.996094 C 139.074219 99.832031 140.070312 98.753906 141.3125 98.753906 Z M 126.886719 93.1875 C 128.046875 93.1875 129.042969 94.183594 129.042969 95.347656 C 129.042969 96.511719 128.046875 97.507812 126.886719 97.507812 C 125.726562 97.507812 124.730469 96.511719 124.730469 95.347656 C 124.8125 94.101562 125.726562 93.1875 126.886719 93.1875 Z M 122.742188 91.195312 C 123.820312 91.195312 124.648438 92.027344 124.648438 93.105469 C 124.648438 94.183594 123.820312 95.015625 122.742188 95.015625 C 121.664062 95.015625 120.835938 94.183594 120.835938 93.105469 C 120.835938 92.027344 121.664062 91.195312 122.742188 91.195312 Z M 118.679688 88.871094 C 119.675781 88.871094 120.421875 89.617188 120.421875 90.613281 C 120.421875 91.609375 119.675781 92.359375 118.679688 92.359375 C 117.683594 92.359375 116.9375 91.609375 116.9375 90.613281 C 116.9375 89.699219 117.765625 88.871094 118.679688 88.871094 Z M 118.679688 88.871094 " fill-opacity="1" fill-rule="evenodd"/></g><g fill="#d49b35" fill-opacity="1"><g transform="translate(117.862569, 372.323952)"><g><path d="M 10.53125 -0.828125 L 9.921875 -0.828125 L 5.234375 -12.15625 C 4.972656 -12.78125 4.757812 -13.332031 4.59375 -13.8125 L 4.359375 -12.109375 L 2.53125 0 L 1.4375 0 L 4.078125 -16.140625 L 4.703125 -16.140625 L 9.6875 -4.28125 C 9.945312 -3.726562 10.148438 -3.203125 10.296875 -2.703125 C 10.335938 -2.867188 10.570312 -3.382812 11 -4.25 L 16.5625 -16.140625 L 17.171875 -16.140625 L 19.609375 0 L 18.5 0 L 16.75 -12.15625 C 16.625 -12.914062 16.5625 -13.488281 16.5625 -13.875 C 16.550781 -13.863281 16.519531 -13.796875 16.46875 -13.671875 C 16.414062 -13.546875 16.328125 -13.335938 16.203125 -13.046875 C 16.078125 -12.753906 15.945312 -12.453125 15.8125 -12.140625 Z M 10.53125 -0.828125 "/></g></g></g><g fill="#d49b35" fill-opacity="1"><g transform="translate(142.328854, 372.323952)"><g><path d="M 3.8125 -5.546875 L 1.5 0 L 0.359375 0 L 7.09375 -16.125 L 7.71875 -16.125 L 14.484375 0 L 13.28125 0 L 10.96875 -5.546875 Z M 7.34375 -14.328125 C 7.332031 -14.316406 7.300781 -14.226562 7.25 -14.0625 C 7.039062 -13.414062 6.84375 -12.867188 6.65625 -12.421875 L 4.1875 -6.46875 L 10.59375 -6.46875 L 8.125 -12.40625 C 7.601562 -13.539062 7.34375 -14.179688 7.34375 -14.328125 Z M 7.34375 -14.328125 "/></g></g></g><g fill="#d49b35" fill-opacity="1"><g transform="translate(160.595258, 372.323952)"><g><path d="M 3.984375 -13.453125 L 4.03125 -11.546875 L 4.03125 0 L 2.953125 0 L 2.953125 -16.140625 L 3.453125 -16.140625 L 14 -3.984375 C 14.707031 -3.128906 15.257812 -2.453125 15.65625 -1.953125 C 15.59375 -2.660156 15.5625 -3.476562 15.5625 -4.40625 L 15.5625 -16.015625 L 16.640625 -16.015625 L 16.640625 0.140625 L 16.140625 0.140625 L 5.390625 -12.25 C 4.648438 -13.101562 4.175781 -13.671875 3.96875 -13.953125 Z M 3.984375 -13.453125 "/></g></g></g><g fill="#d49b35" fill-opacity="1"><g transform="translate(183.60669, 372.323952)"><g><path d="M 3.8125 -5.546875 L 1.5 0 L 0.359375 0 L 7.09375 -16.125 L 7.71875 -16.125 L 14.484375 0 L 13.28125 0 L 10.96875 -5.546875 Z M 7.34375 -14.328125 C 7.332031 -14.316406 7.300781 -14.226562 7.25 -14.0625 C 7.039062 -13.414062 6.84375 -12.867188 6.65625 -12.421875 L 4.1875 -6.46875 L 10.59375 -6.46875 L 8.125 -12.40625 C 7.601562 -13.539062 7.34375 -14.179688 7.34375 -14.328125 Z M 7.34375 -14.328125 "/></g></g></g><g fill="#d49b35" fill-opacity="1"><g transform="translate(201.87309, 372.323952)"><g><path d="M 9.828125 -15.296875 C 7.867188 -15.296875 6.269531 -14.59375 5.03125 -13.1875 C 3.789062 -11.78125 3.171875 -10.054688 3.171875 -8.015625 C 3.171875 -5.984375 3.875 -4.257812 5.28125 -2.84375 C 6.6875 -1.425781 8.394531 -0.71875 10.40625 -0.71875 C 12.144531 -0.71875 13.585938 -0.957031 14.734375 -1.4375 L 14.734375 -8.015625 L 15.8125 -8.015625 L 15.8125 -0.9375 C 14.507812 -0.132812 12.6875 0.265625 10.34375 0.265625 C 8.007812 0.265625 6.035156 -0.535156 4.421875 -2.140625 C 2.816406 -3.742188 2.015625 -5.707031 2.015625 -8.03125 C 2.015625 -10.351562 2.742188 -12.304688 4.203125 -13.890625 C 5.671875 -15.484375 7.546875 -16.28125 9.828125 -16.28125 C 11.617188 -16.28125 13.429688 -15.976562 15.265625 -15.375 L 14.984375 -14.484375 C 13.191406 -15.023438 11.472656 -15.296875 9.828125 -15.296875 Z M 9.828125 -15.296875 "/></g></g></g><g fill="#d49b35" fill-opacity="1"><g transform="translate(223.698266, 372.323952)"><g><path d="M 2.953125 0 L 2.953125 -16.015625 L 10.390625 -16.015625 L 10.390625 -15.0625 L 4.03125 -15.0625 L 4.03125 -9.1875 L 9.78125 -9.1875 L 9.78125 -8.265625 L 4.03125 -8.265625 L 4.03125 -0.9375 L 10.640625 -0.9375 L 10.640625 0 Z M 2.953125 0 "/></g></g></g><g fill="#d49b35" fill-opacity="1"><g transform="translate(239.099741, 372.323952)"><g><path d="M 2.953125 0 L 2.953125 -15.9375 C 4.367188 -16.039062 5.554688 -16.09375 6.515625 -16.09375 C 8.035156 -16.09375 9.285156 -15.703125 10.265625 -14.921875 C 11.253906 -14.140625 11.75 -13.03125 11.75 -11.59375 C 11.75 -10.625 11.460938 -9.722656 10.890625 -8.890625 C 10.328125 -8.054688 9.695312 -7.390625 9 -6.890625 C 9.550781 -6.128906 10.234375 -5.222656 11.046875 -4.171875 C 11.859375 -3.117188 12.382812 -2.457031 12.625 -2.1875 C 13.539062 -1.21875 14.570312 -0.664062 15.71875 -0.53125 L 15.703125 0.171875 C 14.785156 0.160156 14.039062 0.0234375 13.46875 -0.234375 C 12.90625 -0.492188 12.363281 -0.890625 11.84375 -1.421875 C 11.332031 -1.960938 10.054688 -3.640625 8.015625 -6.453125 C 6.554688 -6.453125 5.226562 -6.492188 4.03125 -6.578125 L 4.03125 0 Z M 7.359375 -7.34375 C 8.023438 -7.34375 8.726562 -7.773438 9.46875 -8.640625 C 10.21875 -9.503906 10.59375 -10.507812 10.59375 -11.65625 C 10.59375 -12.800781 10.207031 -13.664062 9.4375 -14.25 C 8.664062 -14.84375 7.644531 -15.140625 6.375 -15.140625 C 5.707031 -15.140625 4.925781 -15.109375 4.03125 -15.046875 L 4.03125 -7.453125 C 5.226562 -7.378906 6.335938 -7.34375 7.359375 -7.34375 Z M 7.359375 -7.34375 "/></g></g></g><g fill="#d49b35" fill-opacity="1"><g transform="translate(106.442882, 341.727724)"><g><path d="M 8.398438 0 L 15.28125 0 L 15.28125 -0.546875 C 13.972656 -0.929688 13.589844 -1.898438 13.589844 -5.359375 L 13.589844 -28.871094 L 15.574219 -28.871094 C 19.375 -28.871094 21.019531 -27.859375 22.457031 -24.820312 L 22.921875 -24.902344 L 22.667969 -29.546875 L 0.929688 -29.546875 L 0.675781 -24.902344 L 1.140625 -24.820312 C 2.574219 -27.859375 4.222656 -28.871094 8.019531 -28.871094 L 10.089844 -28.871094 L 10.089844 -5.359375 C 10.089844 -1.898438 9.707031 -0.929688 8.398438 -0.546875 Z M 8.398438 0 "/></g></g></g><g fill="#d49b35" fill-opacity="1"><g transform="translate(149.364623, 341.727724)"><g><path d="M -0.71875 0 L 4.050781 0 L 4.050781 -0.546875 C 2.617188 -0.84375 2.449219 -2.238281 3.546875 -4.980469 L 6.035156 -11.144531 L 17.9375 -11.144531 L 20.515625 -4.9375 C 21.863281 -1.773438 22.203125 -0.929688 20.894531 -0.546875 L 20.894531 0 L 27.4375 0 L 27.4375 -0.546875 C 26.550781 -0.929688 25.539062 -1.773438 24.230469 -4.9375 L 13.84375 -29.886719 L 10.679688 -28.449219 L 11.058594 -27.5625 C 11.398438 -26.886719 11.4375 -26.339844 11.144531 -25.578125 L 2.828125 -4.980469 C 1.519531 -1.773438 0.464844 -0.929688 -0.71875 -0.546875 Z M 6.289062 -11.777344 L 11.902344 -25.664062 L 17.6875 -11.777344 Z M 6.289062 -11.777344 "/></g></g></g><g fill="#d49b35" fill-opacity="1"><g transform="translate(195.703531, 341.727724)"><g><path d="M 12.03125 0.421875 C 17.011719 0.421875 21.90625 -2.785156 21.90625 -8.0625 C 21.90625 -12.832031 17.515625 -14.6875 12.832031 -16.546875 C 9.242188 -18.023438 4.894531 -19.628906 4.894531 -23.59375 C 4.894531 -27.183594 7.808594 -29.167969 11.226562 -29.167969 C 16.039062 -29.167969 18.996094 -26.550781 20.554688 -22.878906 L 20.976562 -23.003906 L 20.808594 -27.902344 C 19.164062 -28.789062 16.417969 -29.84375 12.578125 -29.84375 C 6.375 -29.84375 2.28125 -26.71875 2.28125 -21.78125 C 2.28125 -17.304688 5.445312 -15.535156 10.425781 -13.550781 C 13.972656 -12.113281 19.164062 -10.171875 19.164062 -5.953125 C 19.164062 -2.53125 16.25 -0.335938 12.875 -0.335938 C 7.007812 -0.335938 3.800781 -4.09375 2.152344 -8.527344 L 1.6875 -8.441406 L 1.898438 -2.574219 C 3.882812 -1.140625 7.597656 0.421875 12.03125 0.421875 Z M 12.03125 0.421875 "/></g></g></g><g fill="#d49b35" fill-opacity="1"><g transform="translate(238.24559, 341.727724)"><g><path d="M 2.152344 0 L 8.992188 0 L 8.992188 -0.546875 C 7.683594 -0.929688 7.300781 -1.898438 7.300781 -5.359375 L 7.300781 -12.621094 L 10.425781 -15.828125 L 11.269531 -15.828125 C 15.535156 -15.957031 16.167969 -13.378906 18.953125 -6.542969 C 20.976562 -1.605469 21.738281 0.210938 24.820312 0.210938 C 25.707031 0.210938 26.632812 0.125 27.351562 -0.0859375 L 27.351562 -0.632812 C 27.097656 -0.589844 26.886719 -0.589844 26.632812 -0.589844 C 25.285156 -0.589844 24.355469 -2.066406 22.203125 -7.472656 C 19.332031 -14.6875 18.363281 -16.96875 12.070312 -16.546875 L 11.101562 -16.503906 L 20.09375 -25.707031 C 22.496094 -28.195312 24.269531 -28.617188 25.621094 -29 L 25.621094 -29.546875 L 19.753906 -29.546875 L 19.753906 -29.167969 C 21.402344 -28.914062 21.019531 -27.519531 18.363281 -24.777344 L 7.300781 -13.464844 L 7.300781 -24.1875 C 7.300781 -27.648438 7.683594 -28.617188 8.992188 -29 L 8.992188 -29.546875 L 2.152344 -29.546875 L 2.152344 -29 C 3.417969 -28.617188 3.839844 -27.648438 3.839844 -24.1875 L 3.839844 -5.359375 C 3.839844 -1.898438 3.417969 -0.929688 2.152344 -0.546875 Z M 2.152344 0 "/></g></g></g><g fill="#d49b35" fill-opacity="1"><g transform="translate(30.776547, 179.544508)"><g><path d="M 74.140625 -61.53125 C 71.992188 -61.414062 70.425781 -61.175781 69.4375 -60.8125 C 68.457031 -60.457031 67.789062 -59.769531 67.4375 -58.75 C 67.082031 -57.738281 66.90625 -56.101562 66.90625 -53.84375 L 66.90625 -9.484375 C 66.90625 -7.210938 67.082031 -5.570312 67.4375 -4.5625 C 67.789062 -3.550781 68.457031 -2.863281 69.4375 -2.5 C 70.425781 -2.144531 71.992188 -1.90625 74.140625 -1.78125 L 74.140625 0 C 71.398438 -0.175781 67.613281 -0.265625 62.78125 -0.265625 C 57.65625 -0.265625 53.84375 -0.175781 51.34375 0 L 51.34375 -1.78125 C 53.488281 -1.90625 55.050781 -2.144531 56.03125 -2.5 C 57.019531 -2.863281 57.691406 -3.550781 58.046875 -4.5625 C 58.398438 -5.570312 58.578125 -7.210938 58.578125 -9.484375 L 58.578125 -57.421875 L 37.03125 0.453125 L 35.59375 0.453125 L 13.0625 -57.59375 L 13.0625 -10.375 C 13.0625 -8.050781 13.253906 -6.320312 13.640625 -5.1875 C 14.023438 -4.050781 14.785156 -3.226562 15.921875 -2.71875 C 17.054688 -2.21875 18.816406 -1.90625 21.203125 -1.78125 L 21.203125 0 C 19.054688 -0.175781 16.015625 -0.265625 12.078125 -0.265625 C 8.492188 -0.265625 5.71875 -0.175781 3.75 0 L 3.75 -1.78125 C 5.84375 -1.90625 7.394531 -2.21875 8.40625 -2.71875 C 9.414062 -3.226562 10.097656 -4.0625 10.453125 -5.21875 C 10.816406 -6.382812 11 -8.101562 11 -10.375 L 11 -53.84375 C 11 -56.101562 10.816406 -57.738281 10.453125 -58.75 C 10.097656 -59.769531 9.425781 -60.457031 8.4375 -60.8125 C 7.457031 -61.175781 5.894531 -61.414062 3.75 -61.53125 L 3.75 -63.328125 C 5.71875 -63.140625 8.492188 -63.046875 12.078125 -63.046875 C 15.171875 -63.046875 17.703125 -63.140625 19.671875 -63.328125 L 39.359375 -11.53125 L 58.578125 -63.046875 L 62.78125 -63.046875 C 67.613281 -63.046875 71.398438 -63.140625 74.140625 -63.328125 Z M 74.140625 -61.53125 "/></g></g></g><g fill="#d49b35" fill-opacity="1"><g transform="translate(135.315365, 179.544508)"><g><path d="M 50.71875 -7.515625 C 52.144531 -3.816406 54.195312 -1.90625 56.875 -1.78125 L 56.875 0 C 54.5 -0.175781 51.3125 -0.265625 47.3125 -0.265625 C 42.1875 -0.265625 38.367188 -0.175781 35.859375 0 L 35.859375 -1.78125 C 38.128906 -1.90625 39.753906 -2.191406 40.734375 -2.640625 C 41.722656 -3.085938 42.21875 -3.90625 42.21875 -5.09375 C 42.21875 -6.113281 41.859375 -7.515625 41.140625 -9.296875 L 35.6875 -23.96875 L 14.046875 -23.96875 L 10.375 -14.484375 C 9.1875 -11.265625 8.59375 -8.820312 8.59375 -7.15625 C 8.59375 -5.300781 9.234375 -3.957031 10.515625 -3.125 C 11.796875 -2.289062 13.742188 -1.84375 16.359375 -1.78125 L 16.359375 0 C 12.960938 -0.175781 9.535156 -0.265625 6.078125 -0.265625 C 3.398438 -0.265625 1.164062 -0.175781 -0.625 0 L -0.625 -1.78125 C 2.351562 -2.5 4.707031 -5.09375 6.4375 -9.5625 L 27.453125 -63.765625 L 28.890625 -63.765625 Z M 34.96875 -25.765625 L 24.953125 -52.5 L 14.75 -25.765625 Z M 34.96875 -25.765625 "/></g></g></g><g fill="#d49b35" fill-opacity="1"><g transform="translate(218.30335, 179.544508)"><g><path d="M 74.40625 -63.046875 C 77.09375 -63.046875 79.332031 -63.140625 81.125 -63.328125 L 81.125 -61.53125 C 77.78125 -60.757812 75.421875 -58.164062 74.046875 -53.75 L 57.15625 0.453125 L 55.71875 0.453125 L 40.15625 -45.609375 L 25.9375 0.453125 L 24.5 0.453125 L 5.546875 -55.8125 C 4.296875 -59.507812 2.238281 -61.414062 -0.625 -61.53125 L -0.625 -63.328125 C 1.820312 -63.140625 5.007812 -63.046875 8.9375 -63.046875 C 13.238281 -63.046875 16.460938 -63.140625 18.609375 -63.328125 L 18.609375 -61.53125 C 16.992188 -61.414062 15.859375 -61.117188 15.203125 -60.640625 C 14.546875 -60.160156 14.21875 -59.414062 14.21875 -58.40625 C 14.21875 -57.445312 14.546875 -55.984375 15.203125 -54.015625 L 28.265625 -14.125 L 39.171875 -48.75 L 36.765625 -55.8125 C 35.566406 -59.507812 33.804688 -61.414062 31.484375 -61.53125 L 31.484375 -63.328125 C 33.628906 -63.140625 36.519531 -63.046875 40.15625 -63.046875 C 45.28125 -63.046875 49.097656 -63.140625 51.609375 -63.328125 L 51.609375 -61.53125 C 49.335938 -61.414062 47.753906 -61.160156 46.859375 -60.765625 C 45.972656 -60.378906 45.53125 -59.5625 45.53125 -58.3125 C 45.53125 -57.238281 45.828125 -55.804688 46.421875 -54.015625 L 59.296875 -14.21875 L 70.296875 -48.828125 C 71.253906 -51.753906 71.734375 -54.171875 71.734375 -56.078125 C 71.734375 -58.046875 71.132812 -59.429688 69.9375 -60.234375 C 68.75 -61.035156 66.8125 -61.46875 64.125 -61.53125 L 64.125 -63.328125 C 67.519531 -63.140625 70.945312 -63.046875 74.40625 -63.046875 Z M 74.40625 -63.046875 "/></g></g></g><g fill="#d49b35" fill-opacity="1"><g transform="translate(325.882534, 179.544508)"><g><path d="M 26.5625 -61.53125 C 24.414062 -61.414062 22.847656 -61.175781 21.859375 -60.8125 C 20.878906 -60.457031 20.207031 -59.769531 19.84375 -58.75 C 19.488281 -57.738281 19.3125 -56.101562 19.3125 -53.84375 L 19.3125 -9.484375 C 19.3125 -7.210938 19.488281 -5.570312 19.84375 -4.5625 C 20.207031 -3.550781 20.878906 -2.863281 21.859375 -2.5 C 22.847656 -2.144531 24.414062 -1.90625 26.5625 -1.78125 L 26.5625 0 C 23.820312 -0.175781 20.035156 -0.265625 15.203125 -0.265625 C 10.078125 -0.265625 6.257812 -0.175781 3.75 0 L 3.75 -1.78125 C 5.894531 -1.90625 7.457031 -2.144531 8.4375 -2.5 C 9.425781 -2.863281 10.097656 -3.550781 10.453125 -4.5625 C 10.816406 -5.570312 11 -7.210938 11 -9.484375 L 11 -53.84375 C 11 -56.101562 10.816406 -57.738281 10.453125 -58.75 C 10.097656 -59.769531 9.425781 -60.457031 8.4375 -60.8125 C 7.457031 -61.175781 5.894531 -61.414062 3.75 -61.53125 L 3.75 -63.328125 C 6.257812 -63.140625 10.078125 -63.046875 15.203125 -63.046875 C 19.972656 -63.046875 23.757812 -63.140625 26.5625 -63.328125 Z M 26.5625 -61.53125 "/></g></g></g></svg>